inDegrees=yes
name=ik_S52_A05_T02
DataType=double
version=3
OpenSimVersion=4.3-2021-08-27-4bc7ad9
endheader
time	pelvis_tilt	pelvis_list	pelvis_rotation	pelvis_tx	pelvis_ty	pelvis_tz	hip_flexion_r	hip_adduction_r	hip_rotation_r	knee_angle_r	knee_angle_r_beta	ankle_angle_r	subtalar_angle_r	mtp_angle_r	hip_flexion_l	hip_adduction_l	hip_rotation_l	knee_angle_l	knee_angle_l_beta	ankle_angle_l	subtalar_angle_l	mtp_angle_l	lumbar_extension	lumbar_bending	lumbar_rotation	arm_flex_r	arm_add_r	arm_rot_r	elbow_flex_r	pro_sup_r	wrist_flex_r	wrist_dev_r	arm_flex_l	arm_add_l	arm_rot_l	elbow_flex_l	pro_sup_l	wrist_flex_l	wrist_dev_l
0	0	0	0	0	0.9399999999999999	0	0	0	0	0	0	0	0	0	0	0	0	0	0	0	0	0	0	0	0	0	0	0	0	89.99999999963507	0	0	0	0	0	0	89.99999999869995	0	0
0.02	-4.331354711311491	0.5759365726728704	18.5573531221484	0	0.9399999999999999	0	3.609382955071997	-1.680104627895291	-1.214348958653342	5.555217828105287	0.09695684176592564	0	0	0	3.609382955071997	-1.680104627895291	-1.214348958653342	5.555217828105287	0.09695684176592564	0	0	0	-1.457068380846837	-2.153155810058255	2.669867233578265	30.71300644991621	-9.055660337702133	-10.28382167376938	36.11563795473332	150.2189085465744	0	0	31.20488197181586	-8.755634861515096	-9.103508896492686	40.1390563277939	124.55758497511	0	0
0.04	-4.315568787941405	0.5773296878884299	18.49974379682947	0	0.9399999999999999	0	4.908758986945171	-2.361678733133624	-1.642840462153807	7.407186774095183	0.1292797975181384	0	0	0	4.908758986945171	-2.361678733133624	-1.642840462153807	7.407186774095183	0.1292797975181384	0	0	0	-1.461892934027859	-2.11903319162264	2.718633413085096	30.690510255102	-9.076311442348505	-10.27540052090441	36.14857886877878	150.1891567143963	0	0	31.16956169464918	-8.717113132944966	-9.125217130459909	40.13100825812159	124.5810253106921	0	0
0.06	-4.2945437367562	0.5818917986587966	18.48978274748114	0	0.9399999999999999	0	5.049209715566782	-2.431403264180521	-1.693430482153586	7.558557367058452	0.1319217127560436	0	0	0	5.049209715566782	-2.431403264180521	-1.693430482153586	7.558557367058452	0.1319217127560436	0	0	0	-1.445647299768351	-2.113440953850596	2.725547040576383	30.63743324832328	-9.081819971394964	-10.26469506152844	36.17382368314722	150.1545480101944	0	0	31.13194512075853	-8.704096085728821	-9.093921968190919	40.17088103271451	124.530719876927	0	0
0.08	-4.292506022508669	0.5796011029232522	18.49022886347644	0	0.9399999999999999	0	5.162491430659336	-2.488865106767799	-1.73321571026844	7.693585307528735	0.1342783948994369	0	0	0	5.162491430659336	-2.488865106767799	-1.73321571026844	7.693585307528735	0.1342783948994369	0	0	0	-1.448055099994491	-2.110635906317997	2.726212956214738	30.61295911769363	-9.087822676188329	-10.25198967485658	36.21548440528182	150.1548378427668	0	0	31.12398568309287	-8.711720272698436	-9.066719061497023	40.18684001273311	124.5019843432319	0	0
0.1	-4.333198921953811	0.9042365530932963	17.94923706115051	0	0.9399999999999999	0	44.73291762712569	-10.48352793122762	-10.56205116103842	53.92882255787664	0.9412355153587375	0	0	0	44.73291762712569	-10.48352793122762	-10.56205116103842	53.92882255787664	0.9412355153587375	0	0	0	-1.556533688505074	-2.4631209462485	3.276124079783037	30.6705349154632	-9.084708915840853	-10.29073051065677	36.20432906464912	150.2231001702155	0	0	31.16916792785376	-8.72746249934751	-9.075582424557613	40.19674232363121	124.5046942736135	0	0
0.12	-4.337882810767476	0.9064152458950486	17.94159063605634	0	0.9399999999999999	0	44.73304117250343	-10.48268793020286	-10.56145153550653	53.92915268552067	0.9412412771730778	0	0	0	44.73304117250343	-10.48268793020286	-10.56145153550653	53.92915268552067	0.9412412771730778	0	0	0	-1.561086285545117	-2.458149507075951	3.276840517451534	30.66995224454432	-9.084685362844004	-10.32123903672663	36.20378969186108	150.2170926590762	0	0	31.17568212041865	-8.71138573288937	-9.091416483344627	40.19208819899985	124.4990016313372	0	0
0.14	-4.346208563314734	0.9000475446226642	17.94156222915259	0	0.9399999999999999	0	44.73342215055128	-10.48026129637976	-10.55965415447314	53.93017819384075	0.9412591756697698	0	0	0	44.73342215055128	-10.48026129637976	-10.55965415447314	53.93017819384075	0.9412591756697698	0	0	0	-1.573265973514063	-2.456993770570735	3.273845325385353	30.67490053115742	-9.108446228527804	-10.31323443016877	36.2491214460162	150.1255887011671	0	0	31.19184723442324	-8.740431684501804	-9.08841985037134	40.22911425036895	124.4704408131031	0	0
0.16	-4.304353328134557	0.9117617931798574	17.93890411068856	0	0.9399999999999999	0	44.73476188821729	-10.47429226921398	-10.55440340708877	53.93396809071206	0.9413253218484851	0	0	0	44.73476188821729	-10.47429226921398	-10.55440340708877	53.93396809071206	0.9413253218484851	0	0	0	-1.537988566952291	-2.443740322967581	3.271546792944585	30.58235341031311	-9.125016439207679	-10.29481030201036	36.27970623617156	150.1005548166585	0	0	31.08537860562719	-8.742108196184867	-9.100721249449382	40.23812324549328	124.4769243281449	0	0
0.18	-4.328314455066987	0.8960494510713645	17.93671121640117	0	0.9399999999999999	0	44.7345591425061	-10.47506992137145	-10.5551586068539	53.93339577452781	0.9413153330467076	0	0	0	44.7345591425061	-10.47506992137145	-10.5551586068539	53.93339577452781	0.9413153330467076	0	0	0	-1.564308474525221	-2.453875247111255	3.271665219984119	30.64228738437422	-9.085953710130495	-10.31115655380125	36.23621200811179	150.1926713651879	0	0	31.15187418259684	-8.728237296295831	-9.096850142448163	40.19541570932473	124.5137174018683	0	0
0.2	-4.341002703808413	0.888200576584415	17.91901661553945	0	0.9399999999999999	0	44.73474376149824	-10.47410432942836	-10.55438433988367	53.9339114599544	0.9413243334553061	0	0	0	44.73474376149824	-10.47410432942836	-10.55438433988367	53.9339114599544	0.9413243334553061	0	0	0	-1.579982083150411	-2.455145802302936	3.272133154760521	30.67786898998804	-9.110129878783511	-10.3584170171666	36.24568269882381	150.1971767665491	0	0	31.15605507909737	-8.755834736944671	-9.106106545220225	40.20264651930201	124.4879593340902	0	0
0.22	-4.339567118993926	0.8872108247652403	17.91707019694212	0	0.9399999999999999	0	44.73498113850718	-10.47218468242472	-10.55308405510365	53.93451473090708	0.9413348625197119	0	0	0	44.73498113850718	-10.47218468242472	-10.55308405510365	53.93451473090708	0.9413348625197119	0	0	0	-1.580298129124176	-2.453838785087869	3.272548506709736	30.68223570945149	-9.126121484982185	-10.37302845235847	36.27780355798949	150.1086733462296	0	0	31.16604584356544	-8.769747890815816	-9.10402872130326	40.23618166135183	124.4569767678251	0	0
0.24	-4.325221655198964	0.8936043370586241	17.91831060482606	0	0.9399999999999999	0	44.73500672996381	-10.47210576585526	-10.55300431566732	53.93459874444927	0.9413363288326394	0	0	0	44.73500672996381	-10.47210576585526	-10.55300431566732	53.93459874444927	0.9413363288326394	0	0	0	-1.565022281279056	-2.452138298331531	3.284464803141804	30.64827320152484	-9.126752983998719	-10.4027951297474	36.23485918490281	150.1400637430201	0	0	31.14435611908693	-8.753990985983176	-9.093326645164892	40.20591400043816	124.4867253823608	0	0
0.26	-4.315214931601733	0.8901696286673961	17.90857553885584	0	0.9399999999999999	0	44.73546603585409	-10.46932238983428	-10.55089642794667	53.93584230254304	0.9413580330158156	0	0	0	44.73546603585409	-10.46932238983428	-10.55089642794667	53.93584230254304	0.9413580330158156	0	0	0	-1.559366651342674	-2.452941175480852	3.283248306214581	30.6274812352908	-9.129489232334134	-10.4305581388709	36.29063933427941	150.0411692665638	0	0	31.11936179027576	-8.742091469068855	-9.078117717339373	40.24738526740742	124.4436131111126	0	0
0.28	-4.322405786860336	0.8874320751015512	17.89135944416001	0	0.9399999999999999	0	44.73529356848528	-10.47055565188435	-10.55178310545729	53.9353969133379	0.941350259507733	0	0	0	44.73529356848528	-10.47055565188435	-10.55178310545729	53.9353969133379	0.941350259507733	0	0	0	-1.566302937296534	-2.45570310669946	3.300280168729656	30.61348557333091	-9.128393574799905	-10.5776348480219	36.25348487442059	150.1481073552289	0	0	31.13383624052994	-8.749838351129977	-9.08929371040696	40.21409313109427	124.5013104048798	0	0
